<?xml version="1.0" encoding="UTF-8"?>
<svg width="57px" height="60px" viewBox="0 0 57 60" version="1.1" xmlns="http://www.w3.org/2000/svg" xmlns:xlink="http://www.w3.org/1999/xlink">
    <!-- Generator: Sketch 52.2 (67145) - http://www.bohemiancoding.com/sketch -->
    <title>ill_email@1x</title>
    <desc>Created with Sketch.</desc>
    <g id="App-Screen-Illustrations" stroke="none" stroke-width="1" fill="none" fill-rule="evenodd">
        <g id="ill_email" transform="translate(-1.000000, 0.000000)">
            <g transform="translate(1.307872, 0.000000)">
                <polygon id="Shape" fill="#D0D6E1" fill-rule="nonzero" points="28.3363187 1.25959016 0.897842968 23.5057377 4.84440547 25.400082 52.6274109 25.3108197 55.5774664 23.7140164"></polygon>
                <path d="M55.251875,58.089918 C55.6463411,57.5739038 55.9256423,56.9785517 56.0707867,56.3443443 L56.0707867,23.5156557 L39.465625,34.3163934 L55.251875,58.089918 Z" id="Shape" fill="#D0D6E1" fill-rule="nonzero"></path>
                <path d="M18.1541875,34.2271311 L1.19383516,23.5156557 L1.19383516,56.3443443 C1.19383516,56.87 2.09167812,57.6336885 2.3679375,58.0403279 L18.1541875,34.2271311 Z" id="Shape" fill="#D0D6E1" fill-rule="nonzero"></path>
                <path d="M39.1893656,34.2866393 L28.780307,40.6639344 L18.1245883,34.3064754 L2.33833828,58.1791803 C2.55305627,58.2428513 2.77553214,58.2762304 2.9993875,58.2783607 L53.5153875,58.5064754 C54.0424245,58.4319887 54.5634137,58.3192905 55.0742796,58.1692623 L39.1893656,34.2866393 Z" id="Shape" fill="#D0D6E1" fill-rule="nonzero"></path>
                <path d="M1.69702187,23.7140164 C1.69702187,23.7140164 12.0962141,59.2304918 48.3453906,58.9031967 L4.18335625,58.4568852 L1.9042164,57.792377 L0.818911718,54.5987705 L1.27276641,23.8528689 L1.69702187,23.7140164 Z" id="Shape" fill="#B7C1D2" fill-rule="nonzero"></path>
                <path d="M56.0411875,23.3668852 L56.0411875,56.1955738 C56.046665,57.5446919 54.9659807,58.644333 53.6239179,58.6552459 L3.61110468,58.6552459 C2.96476983,58.6526208 2.34594516,58.3920014 1.89076773,57.9307223 C1.43559031,57.4694431 1.18134671,56.8452906 1.18396875,56.1955738 L1.18396875,23.3668852 L28.41525,0.85295082 L56.0411875,23.3668852 Z" id="Shape" stroke="#12326B" stroke-width="0.987443698" stroke-linecap="round" stroke-linejoin="round"></path>
                <polyline id="Shape" fill="#FFFFFF" fill-rule="nonzero" points="4.66681015 25.5488525 28.8197726 40.8027869 52.6274109 25.3108197 49.4898937 22.6131148 5.70278281 23.7140164 4.30175312 25.4695082"></polyline>
                <path d="M52.5583668,25.5488525 L52.5583461,12.3082787 C52.5638236,10.9591605 51.4831393,9.85951945 50.1410765,9.84860656 L7.09394609,9.84860656 C5.75188327,9.85951945 4.67119902,10.9591605 4.67667656,12.3082787 L4.67665583,25.5488525" id="Shape" stroke="#12326B" stroke-width="0.987443698" fill="#FFFFFF" fill-rule="nonzero" stroke-linecap="round" stroke-linejoin="round"></path>
                <path d="M5.3771914,10.7313115 C5.3771914,10.7313115 12.2047445,37.7877049 40.7087922,33.1659016 L28.8197726,40.8027869 L4.66681015,25.5488525 L4.66681015,12.3082787 L5.3771914,10.7313115 Z" id="Shape" fill="#F2F2F2" fill-rule="nonzero"></path>
                <path d="M52.5583668,25.5488525 L52.5583461,12.3082787 C52.5638236,10.9591605 51.4831393,9.85951945 50.1410765,9.84860656 L7.09394609,9.84860656 C5.75188327,9.85951945 4.67119902,10.9591605 4.67667656,12.3082787 L4.67665583,25.5488525" id="Shape-Copy" stroke="#12326B" stroke-width="0.987443698" stroke-linecap="round" stroke-linejoin="round" fill-rule="nonzero"></path>
                <polyline id="Shape" stroke="#12326B" stroke-width="0.987443698" stroke-linecap="round" stroke-linejoin="round" points="56.0411875 23.3668852 28.8197726 40.8027869 1.19383516 23.3668852"></polyline>
                <path d="M39.3472281,34.3461475 L55.1532109,58.1097541" id="Shape" stroke="#12326B" stroke-width="0.987443698" stroke-linecap="round" stroke-linejoin="round"></path>
                <path d="M2.19034219,58.3081148 L18.0357906,34.3461475" id="Shape" stroke="#12326B" stroke-width="0.987443698" stroke-linecap="round" stroke-linejoin="round"></path>
                <path d="M30.1812824,22.0811016 C29.9454347,22.0366487 29.7022203,22.0144226 29.4516321,22.0144226 C28.9946771,22.0144226 28.5672094,22.11444 28.1692163,22.3144778 C27.7712233,22.5145156 27.4266696,22.7849331 27.135545,23.1257382 C26.8444205,23.4665433 26.6141038,23.8573521 26.4445883,24.2981761 C26.2750727,24.7390002 26.1903162,25.1964872 26.1903162,25.6706509 C26.1903162,26.1448145 26.2916555,26.5133972 26.4943371,26.7764099 C26.6970188,27.0394225 26.9936666,27.1709269 27.3842895,27.1709269 C27.5759158,27.1709269 27.7693817,27.1412921 27.9646931,27.0820216 C28.1600046,27.0227512 28.3461004,26.9171773 28.5229862,26.7652967 C28.699872,26.6134161 28.8620149,26.4115292 29.0094198,26.1596297 C29.1568246,25.9077303 29.2784318,25.5928607 29.3742449,25.2150115 L30.1812824,22.0811016 Z M31.4747535,24.9260694 C31.3568296,25.4002331 31.2997111,25.7873375 31.3033962,26.0873942 C31.3070813,26.3874509 31.3531447,26.6245292 31.4415876,26.7986362 C31.5300305,26.9727431 31.6553227,27.0931345 31.817468,27.1598137 C31.9796134,27.226493 32.1638667,27.2598321 32.3702335,27.2598321 C32.6797836,27.2598321 32.9727464,27.1616669 33.2491305,26.9653335 C33.5255145,26.7690001 33.7668864,26.4930262 33.9732531,26.1374034 C34.1796199,25.7817806 34.3436054,25.3594849 34.4652144,24.8705036 C34.5868234,24.3815224 34.6476269,23.8480962 34.6476269,23.2702092 C34.6476269,22.3070642 34.4983818,21.4587685 34.199887,20.7252966 C33.9013921,19.9918246 33.4831372,19.378755 32.9451095,18.8860693 C32.4070818,18.3933836 31.7677229,18.0229488 31.0270135,17.7747537 C30.2863042,17.5265587 29.4737471,17.402463 28.5893181,17.402463 C27.6164461,17.402463 26.71729,17.5858282 25.8918229,17.9525642 C25.0663557,18.3193002 24.3496104,18.8212394 23.7415654,19.4583968 C23.1335204,20.0955543 22.6581469,20.8475369 22.3154307,21.7143674 C21.9727144,22.5811979 21.8013588,23.5146936 21.8013588,24.5148827 C21.8013588,25.7299271 21.9892972,26.7986316 22.3651795,27.7210281 C22.7410619,28.6434246 23.2569711,29.4139291 23.9129227,30.0325645 C24.5688743,30.6511999 25.3408956,31.1160956 26.2290098,31.4272655 C27.117124,31.7384354 28.0770836,31.8940181 29.1089175,31.8940181 C29.6764262,31.8940181 30.2070757,31.8625311 30.7008819,31.7995562 C31.1946882,31.7365814 31.6479513,31.6513814 32.0606848,31.5439537 C32.4734184,31.436526 32.8492951,31.3142825 33.1883263,31.1772195 C33.5273574,31.0401566 33.8295328,30.8938348 34.0948615,30.7382499 C34.2864878,30.6271178 34.4560009,30.5937786 34.6034057,30.6382315 C34.7508106,30.6826843 34.8576775,30.7938148 34.9240096,30.9716261 L35.2998901,31.960697 C34.5333849,32.4644959 33.6379139,32.8756786 32.6134502,33.1942573 C31.5889866,33.512836 30.4208207,33.672123 29.1089175,33.672123 C27.7749037,33.672123 26.5404066,33.4609751 25.4053893,33.0386731 C24.270372,32.6163711 23.2883019,32.0107102 22.4591497,31.2216722 C21.6299974,30.4326341 20.9814258,29.4713558 20.5134154,28.3378082 C20.045405,27.2042607 19.8114033,25.9299649 19.8114033,24.5148827 C19.8114033,23.7221403 19.9127427,22.9516358 20.1154243,22.2033463 C20.318106,21.4550567 20.6073837,20.7530827 20.983266,20.0974033 C21.3591484,19.4417238 21.8124115,18.8397672 22.3430689,18.2915155 C22.8737264,17.7432637 23.4633369,17.2728115 24.1119182,16.8801447 C24.7604996,16.4874779 25.4625046,16.1818691 26.2179544,15.9633093 C26.9734043,15.7447495 27.7638509,15.6354712 28.5893181,15.6354712 C29.6358925,15.6354712 30.6400729,15.8114278 31.6018895,16.1633461 C32.5637062,16.5152645 33.4149564,17.0190558 34.1556657,17.6747353 C34.8963751,18.3304148 35.4878282,19.130554 35.9300427,20.0751769 C36.3722572,21.0197999 36.5933612,22.0848 36.5933612,23.2702092 C36.5933612,24.0629516 36.4772816,24.8056734 36.245119,25.4983969 C36.0129563,26.1911205 35.6886705,26.793077 35.2722519,27.3042848 C34.8558332,27.8154925 34.3657194,28.2174143 33.8018959,28.5100622 C33.2380723,28.80271 32.6245089,28.9490318 31.9611871,28.9490318 C31.4526403,28.9490318 31.0030623,28.8304927 30.6124395,28.5934108 C30.2218166,28.356329 29.9528068,27.9747811 29.805402,27.4487558 C29.3705577,27.9821899 28.9099244,28.3637378 28.4234884,28.5934108 C27.9370524,28.8230839 27.410088,28.9379186 26.8425794,28.9379186 C26.3782541,28.9379186 25.9747394,28.856423 25.6320231,28.6934292 C25.2893068,28.5304355 25.0018717,28.3063224 24.7697091,28.0210833 C24.5375464,27.7358442 24.3643483,27.3987485 24.2501096,27.0097861 C24.1358708,26.6208237 24.0787523,26.1966759 24.0787523,25.7373298 C24.0787523,25.3150278 24.1321858,24.8871755 24.2390543,24.4537603 C24.3459228,24.0203451 24.5062232,23.6017537 24.7199602,23.1979737 C24.9336972,22.7941937 25.2008645,22.4163502 25.52147,22.0644318 C25.8420756,21.7125135 26.2179523,21.4050526 26.6491115,21.1420399 C27.0802706,20.8790272 27.5666993,20.6715837 28.1084121,20.5197032 C28.650125,20.3678226 29.2452631,20.2918835 29.8938444,20.2918835 C30.4687233,20.2918835 30.9588371,20.3363357 31.3642004,20.4252414 C31.7695637,20.514147 32.1601807,20.6400949 32.5360631,20.8030886 L31.4747535,24.9260694 Z" id="@" fill="#EF476F"></path>
            </g>
        </g>
        <g id="Page"></g>
    </g>
</svg>